<?xml version="1.0" encoding="utf-8"?>
<!-- Generator: Adobe Illustrator 26.5.0, SVG Export Plug-In . SVG Version: 6.00 Build 0)  -->
<svg version="1.1" id="Layer_1" xmlns="http://www.w3.org/2000/svg" xmlns:xlink="http://www.w3.org/1999/xlink" x="0px" y="0px"
	 viewBox="0 0 360 360" style="enable-background:new 0 0 360 360;" xml:space="preserve">
<style type="text/css">
	.st0{fill:#8FC741;}
	.st1{fill:#93298C;}
	.st2{fill:#1373B9;}
	.st3{fill:#EC262A;}
	.st4{fill:#F79424;}
	.st5{fill:#F8EC22;}
	.st6{fill:#11A89C;}
	.st7{fill:#683390;}
</style>
<g>
	<path class="st0" d="M185.9,329.7c-2,0-4,0-6.1,0c0-0.2,0-0.3,0-0.5c0-49.1,0-98.3,0-147.4c0-0.5,0-1,0-1.6c0,0,0-0.1,0.1-0.1
		c0,0,0.1,0,0.1,0.1c0.2,0.2,0.4,0.5,0.7,0.7c4.4,4.4,8.8,8.8,13.2,13.2c27.6,27.6,55.3,55.3,82.9,82.9c2.9,2.9,5.8,5.9,8.7,8.8
		c-0.1,0.2-0.3,0.3-0.4,0.5c-6.3,6.2-13,11.9-20.3,16.9c-13.2,9.1-27.5,16-43,20.5c-10.6,3.1-21.4,5-32.5,5.7
		C188.1,329.4,187,329.6,185.9,329.7z"/>
	<path class="st1" d="M173.6,30.8c2.1,0,4.2,0,6.2,0c0,0.4,0,0.7,0,1.1c0,48.8,0,97.5,0,146.3c0,0.6,0,1.2,0,1.9c0,0.1,0,0.1,0,0.2
		c0,0-0.1,0-0.1,0.1c0,0-0.1,0-0.1,0c0,0-0.1-0.1-0.1-0.1c-0.2-0.3-0.4-0.6-0.7-0.8c-32.1-32.1-64.2-64.2-96.2-96.2
		c-2.8-2.8-5.7-5.6-8.5-8.4c0.2-0.2,0.4-0.4,0.6-0.6c9.9-9.8,20.9-18.1,33.2-24.8c19.6-10.8,40.6-16.8,62.9-18.2
		C171.7,31,172.6,30.9,173.6,30.8z"/>
	<path class="st2" d="M179.5,180.1c0,0,0.1,0.1,0.1,0.1c-0.4,0.5-0.9,1-1.4,1.5c-33.2,33.2-66.4,66.4-99.6,99.6
		c-1.5,1.5-3.1,3-4.6,4.5c-0.2-0.2-0.4-0.3-0.6-0.5C62.3,273.9,53,261,45.9,246.6c-9-18.1-14-37.2-15.2-57.4
		c-0.1-0.9-0.2-1.8-0.3-2.7c0-2.1,0-4.2,0-6.2c0.3,0,0.5,0,0.8,0c49,0,97.9,0,146.9,0C178.6,180.2,179,180.2,179.5,180.1z"/>
	<path class="st3" d="M179.9,180c0-0.6,0-1.2,0-1.9c0-48.8,0-97.5,0-146.3c0-0.4,0-0.7,0-1.1c2,0,4,0,6.1,0c0.2,0,0.4,0.1,0.6,0.1
		c8.4,0.4,16.6,1.4,24.8,3.2c24.1,5.2,45.6,15.8,64.5,31.6c3.3,2.8,6.4,5.9,9.6,8.8c-0.3,0.3-0.6,0.6-0.9,0.9
		c-4.9,4.9-9.7,9.8-14.6,14.6c-4.7,4.7-9.5,9.4-14.2,14.2c-4.8,4.8-9.6,9.7-14.4,14.5c-4.7,4.7-9.5,9.4-14.2,14.2
		c-4.8,4.8-9.6,9.7-14.4,14.5c-4.7,4.7-9.5,9.4-14.2,14.2c-5.2,5.2-10.4,10.5-15.7,15.7C181.8,178.2,180.8,179.1,179.9,180z"/>
	<path class="st4" d="M179.9,180c1-0.9,2-1.8,2.9-2.8c5.2-5.2,10.4-10.5,15.7-15.7c4.7-4.7,9.5-9.4,14.2-14.2
		c4.8-4.8,9.6-9.7,14.4-14.5c4.7-4.7,9.5-9.4,14.2-14.2c4.8-4.8,9.6-9.7,14.4-14.5c4.7-4.7,9.5-9.4,14.2-14.2
		c4.9-4.9,9.7-9.8,14.6-14.6c0.3-0.3,0.6-0.6,0.9-0.9c0.3,0.2,0.5,0.5,0.8,0.7c5.8,5.9,11.1,12.3,15.9,19.1
		c8.8,12.6,15.6,26.2,20.2,40.9c3.9,12.5,6.2,25.3,6.7,38.3c0,0.2,0.1,0.4,0.1,0.6c0,2,0,4,0,6.1c-0.4,0-0.8,0-1.2,0
		c-48.7,0-97.4,0-146.1,0c-0.7,0-1.3,0-2,0c0,0-0.1,0-0.1-0.1C179.9,180.1,179.9,180.1,179.9,180z"/>
	<path class="st5" d="M180,180.2c0.7,0,1.3,0,2,0c48.7,0,97.4,0,146.1,0c0.4,0,0.8,0,1.2,0c0,1.9,0,3.7,0,5.6c0,0.3-0.1,0.7-0.1,1
		c-0.3,8.1-1.3,16.1-3,24c-3,14.3-8,27.9-15,40.8c-5.4,9.9-11.8,19-19.2,27.4c-2.1,2.3-4.3,4.6-6.5,6.8c-2.9-2.9-5.8-5.9-8.7-8.8
		c-27.6-27.6-55.3-55.3-82.9-82.9c-4.4-4.4-8.8-8.8-13.2-13.2C180.4,180.8,180.2,180.5,180,180.2z"/>
	<path class="st6" d="M74.1,285.8c1.5-1.5,3.1-3,4.6-4.5c33.2-33.2,66.4-66.4,99.6-99.6c0.5-0.5,0.9-1,1.4-1.5c0,0,0.1,0,0.1,0
		c0,0.5,0,1,0,1.6c0,49.1,0,98.3,0,147.4c0,0.2,0,0.3,0,0.5c-2.1,0-4.2,0-6.2,0c-0.2,0-0.4-0.1-0.7-0.1c-6.9-0.3-13.7-1.1-20.5-2.4
		c-11.8-2.2-23.2-5.8-34.2-10.7c-13.8-6.3-26.4-14.4-37.7-24.6C78.3,289.9,76.2,287.9,74.1,285.8z"/>
	<path class="st7" d="M179.5,180.1c-0.5,0-1,0-1.5,0c-49,0-97.9,0-146.9,0c-0.3,0-0.5,0-0.8,0c0-1.7,0-3.4,0-5.1
		c0-0.4,0.1-0.9,0.1-1.3c0.4-9.2,1.6-18.3,3.7-27.3c5.6-23.9,16.3-45.1,32.3-63.6c2.4-2.8,5.1-5.5,7.6-8.2c2.8,2.8,5.7,5.6,8.5,8.4
		c32.1,32.1,64.2,64.2,96.2,96.2C179.1,179.6,179.3,179.9,179.5,180.1z"/>
</g>
</svg>
