<?xml version="1.0" encoding="UTF-8"?><svg id="a" xmlns="http://www.w3.org/2000/svg" viewBox="0 0 21.17 19.15"><path d="M12.54,17.25c-.76,.32-1.37,.98-2.07,1.43-1.12,.82-2.75,.53-3.53-.62-1.97-2.92-3.95-5.83-5.92-8.75C-.98,6.85,.19,5.46,2.48,3.95c.86-.88,2.11-1.25,3.09-1.97,1.54-.77,3.31-.98,4.93-1.56,.38-.2,.78-.33,1.22-.33,2.23-.03,4.46-.04,6.69-.08,1.87-.07,2.84,1.74,2.63,3.4,.02,1.65,.06,3.3,.05,4.95,0,0,0,0,.01,0,.02,1.97,.06,3.94,.08,5.9,0,1.12-.75,2.15-1.8,2.51-1.25,.3-2.56-.15-3.83,.02m-5.12-2.64c.01,.89,.65,1.52,1.54,1.51,1.27-.01,2.54-.03,3.81-.05,.97-.01,1.94-.01,2.91-.04,.85-.02,1.45-.66,1.44-1.51-.02-1.78-.04-3.55-.06-5.33-.03-2.09-.05-4.17-.08-6.26-.07-1.78-2.04-1.43-3.29-1.43-1.72,.04-3.44,0-5.16,.08-.7,.07-1.26,.73-1.25,1.44,.03,1.93,.05,3.86,.07,5.79m-2.66,7.11s.02,0,.03-.01c-1.04-3.86-2.62-7.64-3.36-11.56-.39,.23-.79,.5-1.11,.81-.28,.46-.32,.95-.08,1.44,1.5,3.11,3.02,6.22,4.53,9.33Zm1.02-.33s.01,0,.02,0c-.43-2.55-.88-5.1-1.33-7.65-.14-1.63-.96-3.33-.46-4.95-2.12,.63-1.56,1.87-1.02,3.51,.93,3.03,1.86,6.06,2.79,9.1ZM1.98,5.63c-.82,.47-1.25,1.44-.67,2.28,1.81,2.65,3.59,5.31,5.4,7.95-.8-1.81-1.74-3.59-2.59-5.39-.67-1.62-1.79-3.11-2.14-4.84Zm7.37,6.95c-.01-3.46-.04-7.22-.12-10.55-.93,.1-1.57,.84-1.4,1.79,.49,2.92,1.02,5.85,1.52,8.76Z" fill="#fff"/></svg>